<svg width="400" height="90" viewBox="0 0 400 90" fill="none" xmlns="http://www.w3.org/2000/svg">
<path d="M354.982 1.8381C361.255 9.38095 370.038 28.9924 354.982 47.0952" stroke="#91B3A4" stroke-width="2"/>
<path d="M276.836 47.0952C270.563 54.0794 261.78 72.2381 276.836 89" stroke="#91B3A4" stroke-width="2"/>
<path d="M336.693 1.8381C342.966 9.38095 351.749 28.9924 336.693 47.0952" stroke="#91B3A4" stroke-width="2"/>
<path d="M0 1H366.621C376.32 3.23492 393.556 13.0686 384.91 34.5238C382.416 38.9937 375.267 47.7657 366.621 47.0952C357.975 46.4248 260.209 47.0952 260.209 47.0952C260.209 47.0952 240.257 57.1524 245.245 73.0762C250.233 89 265.197 89 265.197 89C265.197 89 414.838 89 479.683 89" stroke="#91B3A4" stroke-width="2"/>
</svg>
