<svg width="439" height="64" viewBox="0 0 439 64" fill="none" xmlns="http://www.w3.org/2000/svg">
<path d="M324.875 1.58571C330.617 6.85714 338.655 20.5629 324.875 33.2143" stroke="#91B3A4" stroke-width="2"/>
<path d="M253.357 33.2143C247.616 38.0952 239.578 50.7857 253.357 62.5" stroke="#91B3A4" stroke-width="2"/>
<path d="M308.137 1.58571C313.878 6.85714 321.916 20.5629 308.137 33.2143" stroke="#91B3A4" stroke-width="2"/>
<path d="M0 1H335.527C344.403 2.5619 360.178 9.43429 352.265 24.4286C349.983 27.5524 343.44 33.6829 335.527 33.2143C327.614 32.7457 238.14 33.2143 238.14 33.2143C238.14 33.2143 219.88 40.2429 224.445 51.3714C229.01 62.5 242.705 62.5 242.705 62.5C242.705 62.5 379.655 62.5 439 62.5" stroke="#91B3A4" stroke-width="2"/>
</svg>
